<?xml version="1.0" encoding="UTF-8" standalone="no"?>
<svg
   id="svg"
   version="1.1"
   width="48.388191"
   height="77.498123"
   viewBox="0 0 48.388191 77.498123"
   sodipodi:docname="UNICOM-logo.svg"
   inkscape:version="1.1.2 (0a00cf5339, 2022-02-04)"
   xmlns:inkscape="http://www.inkscape.org/namespaces/inkscape"
   xmlns:sodipodi="http://sodipodi.sourceforge.net/DTD/sodipodi-0.dtd"
   xmlns="http://www.w3.org/2000/svg"
   xmlns:svg="http://www.w3.org/2000/svg">
  <defs
     id="defs10" />
  <sodipodi:namedview
     id="namedview8"
     pagecolor="#ffffff"
     bordercolor="#666666"
     borderopacity="1.0"
     inkscape:pageshadow="2"
     inkscape:pageopacity="0.0"
     inkscape:pagecheckerboard="0"
     showgrid="false"
     inkscape:zoom="7.2698671"
     inkscape:cx="22.696426"
     inkscape:cy="49.450698"
     inkscape:window-width="1896"
     inkscape:window-height="1024"
     inkscape:window-x="12"
     inkscape:window-y="44"
     inkscape:window-maximized="0"
     inkscape:current-layer="svgg"
     fit-margin-top="0"
     fit-margin-left="0"
     fit-margin-right="0"
     fit-margin-bottom="0" />
  <g
     id="svgg"
     transform="translate(-138.60951,-4.8669007)">
    <path
       id="path1"
       d="m 146.111,39.292 c -0.127,0.252 -0.96,2.783 -1.85,5.625 -0.89,2.841 -1.957,6.216 -2.37,7.5 -0.414,1.283 -1.043,3.233 -1.398,4.333 -1.421,4.404 -1.825,7.037 -1.507,9.826 1.642,14.422 18.328,20.627 28.906,10.748 2.567,-2.397 4.003,-5.131 5.772,-10.991 0.291,-0.962 0.632,-2.05 0.758,-2.416 0.125,-0.367 0.953,-2.955 1.839,-5.75 0.886,-2.796 1.827,-5.756 2.092,-6.577 0.789,-2.452 0.82,-2.405 -2.27,-3.387 -4.9,-1.557 -16.235,-5.211 -17.151,-5.528 -1.128,-0.392 -1.814,-0.434 -2.067,-0.129 -0.189,0.227 -4.547,13.625 -6.22,19.121 -2.141,7.036 -1.51,11.432 2.049,14.271 2.195,1.752 -0.05,1.637 -3.361,-0.172 -6.06,-3.311 -7.325,-9.16 -4.076,-18.863 0.519,-1.55 1.528,-4.694 2.242,-6.986 0.715,-2.292 1.644,-5.255 2.065,-6.584 1.079,-3.403 1.12,-3.273 -1.276,-4.069 -1.638,-0.545 -1.89,-0.541 -2.177,0.028"
       stroke="none"
       fill="#eb2066"
       fill-rule="evenodd" />
    <path
       id="path3"
       d="m 166.637,5.75 c -6.401,1.077 -11.396,5.604 -13.699,12.417 -0.518,1.532 -3.442,10.814 -4.279,13.583 -0.166,0.55 -0.602,1.948 -0.969,3.106 -1.151,3.63 -1.234,3.347 1.206,4.125 2.147,0.685 2.36,0.521 2.832,-2.185 0.51,-2.921 6.025,-20.108 7.029,-21.902 2.906,-5.197 10.414,-7.364 15.869,-4.581 1.702,0.868 1.336,1.213 -1.322,1.245 -2.462,0.03 -3.592,0.467 -5.305,2.053 -2.44,2.259 -3.147,3.772 -5.83,12.472 -0.65,2.109 -1.324,4.246 -1.499,4.75 -0.175,0.504 -0.737,2.23 -1.249,3.834 -0.512,1.604 -1.201,3.467 -1.531,4.14 -1.303,2.654 -1.307,2.649 2.943,4.01 1.788,0.572 4.3,1.378 5.584,1.789 1.283,0.412 3.345,1.073 4.583,1.469 1.237,0.397 3.338,1.076 4.667,1.51 3.343,1.093 3.326,1.094 3.78,-0.252 0.502,-1.484 4.444,-13.826 5.856,-18.333 2.237,-7.143 0.779,-13.933 -4.002,-18.638 C 177.332,6.457 172.14,4.823 166.637,5.75"
       stroke="none"
       fill="#06bdd5"
       fill-rule="evenodd" />
    <path
       id="path4"
       d="m 166.083,5.245 c -6.872,1.463 -11.488,5.926 -13.97,13.505 -1.336,4.079 -4.323,13.689 -5.751,18.5 -0.462,1.558 -1.115,3.696 -1.451,4.75 -0.336,1.054 -0.747,2.367 -0.913,2.917 -0.38,1.254 -1.14,3.646 -2.913,9.166 -2.601,8.102 -2.976,10.993 -1.94,14.948 4.175,15.933 25.116,18.187 32.532,3.503 0.734,-1.454 1.203,-2.845 4.653,-13.784 0.838,-2.658 1.936,-6.033 2.439,-7.5 0.503,-1.467 1.178,-3.492 1.499,-4.5 0.321,-1.008 0.911,-2.846 1.311,-4.083 0.401,-1.238 1.226,-3.825 1.834,-5.75 0.608,-1.925 1.247,-3.913 1.419,-4.417 2.026,-5.942 2.463,-8.6 1.994,-12.113 C 185.445,10.056 175.971,3.139 166.083,5.245 m 6.135,0.432 c 10.457,1.543 16.521,12.352 13.085,23.323 -0.948,3.024 -2.669,8.433 -3.634,11.417 -0.534,1.65 -1.316,4.098 -1.74,5.441 -0.621,1.971 -0.851,2.495 -1.196,2.721 -0.394,0.259 -0.407,0.303 -0.164,0.572 0.365,0.403 0.336,0.723 -0.216,2.439 -0.265,0.821 -1.206,3.781 -2.092,6.577 -0.886,2.795 -1.714,5.383 -1.839,5.75 -0.126,0.366 -0.467,1.454 -0.758,2.416 -1.769,5.86 -3.205,8.594 -5.772,10.991 -10.578,9.879 -27.264,3.674 -28.906,-10.748 -0.318,-2.789 0.086,-5.422 1.507,-9.826 0.355,-1.1 0.984,-3.05 1.398,-4.333 0.413,-1.284 1.48,-4.659 2.37,-7.5 1.854,-5.92 1.921,-6.084 2.493,-6.084 0.424,0 0.573,-0.381 0.231,-0.592 -0.245,-0.151 -0.1,-0.847 0.705,-3.385 0.367,-1.158 0.803,-2.556 0.969,-3.106 2.947,-9.75 4.716,-15.033 5.619,-16.784 3.459,-6.708 10.55,-10.379 17.94,-9.289 m -5.385,3.596 c -4.861,0.941 -7.628,3.592 -9.5,9.099 -1.708,5.027 -5.367,17.063 -5.606,18.437 -0.293,1.693 -0.625,2.345 -1.373,2.701 -0.483,0.23 -0.516,0.286 -0.284,0.479 0.39,0.324 0.334,0.694 -0.506,3.344 -0.421,1.329 -1.35,4.292 -2.065,6.584 -0.714,2.292 -1.723,5.436 -2.242,6.986 -3.249,9.703 -1.984,15.552 4.076,18.863 3.311,1.809 5.556,1.924 3.361,0.172 -2.967,-2.367 -3.977,-6.337 -2.861,-11.239 0.461,-2.022 1.048,-3.922 5.084,-16.445 1.897,-5.886 1.892,-5.875 2.529,-5.952 l 0.421,-0.052 -0.371,-0.469 c -0.488,-0.618 -0.386,-1.385 0.399,-2.985 0.328,-0.667 1.014,-2.525 1.526,-4.129 0.512,-1.604 1.074,-3.33 1.249,-3.834 0.175,-0.504 0.849,-2.641 1.499,-4.75 2.683,-8.7 3.39,-10.213 5.83,-12.472 1.713,-1.586 2.843,-2.023 5.305,-2.053 2.147,-0.026 2.597,-0.158 2.192,-0.646 -0.971,-1.17 -6.088,-2.138 -8.663,-1.639 m 5.184,0.828 c 1.254,0.352 1.235,0.456 -0.142,0.793 -1.639,0.4 -3.005,1.131 -4.254,2.275 -2.582,2.366 -3.2,3.687 -6.197,13.248 -1.708,5.451 -3.48,10.857 -3.7,11.291 -0.293,0.577 -0.534,0.574 -2.252,-0.027 -0.764,-0.268 -1.707,-0.57 -2.095,-0.673 -1.074,-0.283 -1.102,-0.558 -0.324,-3.091 5.474,-17.817 5.88,-18.876 8.099,-21.101 1.763,-1.766 3.57,-2.581 6.765,-3.048 0.886,-0.129 3.089,0.05 4.1,0.333 m -18.222,30.833 c 2.984,1.001 2.942,0.908 1.887,4.148 -0.359,1.101 -1.302,4.026 -2.096,6.501 -0.794,2.475 -1.743,5.429 -2.11,6.565 -3.207,9.93 -3.121,13.685 0.398,17.454 l 1.043,1.118 -0.75,-0.1 c -2.235,-0.295 -5.926,-3.079 -7.121,-5.371 -1.866,-3.578 -1.805,-7.404 0.218,-13.535 0.508,-1.539 1.485,-4.597 2.172,-6.797 3.222,-10.314 3.385,-10.75 4.022,-10.75 0.027,0 1.079,0.345 2.337,0.767"
       stroke="none"
       fill="#98bae4"
       fill-rule="evenodd"
       sodipodi:nodetypes="cccscccccsscsccccccccccccccccccscccccccccccccsccsccccsscccsccccccccccccccscccccccsc" />
    <path
       style="fill:#1757be;fill-opacity:1;stroke-width:0.0377946"
       d="m 178.14501,48.922153 c -0.30323,-0.166058 -1.14077,-0.449581 -4.40308,-1.490514 -4.41365,-1.408302 -11.69225,-3.754776 -13.89191,-4.478473 -1.35719,-0.446517 -1.73863,-0.555286 -2.1031,-0.599694 l -0.23778,-0.02897 0.17952,-0.02989 c 0.0987,-0.01644 0.17943,-0.04072 0.17931,-0.05395 -1.1e-4,-0.01323 -0.0954,-0.143108 -0.21169,-0.288617 -0.19299,-0.241438 -0.35501,-0.502864 -0.35501,-0.572828 0,-0.0153 0.0553,0.025 0.12283,0.08956 0.23073,0.220475 0.59899,0.405335 1.38895,0.697213 0.21827,0.08065 3.26262,1.066066 6.76524,2.189822 3.50262,1.123756 7.31232,2.349411 8.466,2.723677 3.89088,1.262243 3.97074,1.285493 4.44087,1.292889 0.16629,0.0026 0.34487,-0.0091 0.39684,-0.02607 0.0788,-0.02573 0.0687,-0.0069 -0.0613,0.113384 -0.0857,0.07932 -0.22176,0.197333 -0.30236,0.262254 -0.13981,0.112615 -0.14453,0.123468 -0.10259,0.236216 0.0242,0.065 0.0327,0.116088 0.0189,0.113533 -0.0138,-0.0026 -0.14411,-0.06985 -0.28962,-0.149533 z"
       id="path7797" />
    <path
       style="fill:#1757be;fill-opacity:1;stroke-width:0.0377946"
       d="m 149.76124,39.790933 c -0.30596,-0.17347 -2.07962,-0.770845 -2.66657,-0.898114 -0.13399,-0.02905 -0.21615,-0.05418 -0.18258,-0.05583 0.0336,-0.0017 0.10586,-0.03825 0.16063,-0.08134 0.0774,-0.06087 0.0996,-0.111427 0.0996,-0.226768 0,-0.08164 0.008,-0.148435 0.0169,-0.148435 0.009,0 0.0982,0.04324 0.19764,0.0961 0.19096,0.101534 1.69808,0.59867 2.24212,0.739581 0.17669,0.04577 0.47383,0.09331 0.66032,0.105646 l 0.33908,0.02244 -0.34642,0.183688 c -0.25603,0.135762 -0.34943,0.205221 -0.35797,0.266216 l -0.0116,0.08253 z"
       id="path7836" />
  </g>
  <path
     d="m 16.248602,32.444151 c -1.06049,-0.372717 -2.02121,-0.772554 -2.13494,-0.888528 -0.23424,-0.238868 3.70909,-13.223707 5.38071,-17.717913 1.32866,-3.572156 2.11635,-4.8684777 3.87068,-6.3701187 2.22793,-1.907027 7.00548,-2.9177086 9.93381,-2.101477 0.6761,0.188456 0.53086,0.301515 -1.19643,0.931316 -1.47616,0.538235 -2.41217,1.163048 -3.75704,2.507919 -2.16337,2.1633677 -2.86136,3.7951277 -6.4183,15.0048167 -2.40198,7.569813 -3.08653,9.383206 -3.52433,9.336013 -0.1243,-0.0134 -1.09367,-0.329311 -2.15416,-0.702028 z"
     stroke="none"
     fill="#ffffff"
     id="path86" />
  <path
     d="M 11.468952,70.738331 C 6.4767917,67.885049 4.5234017,63.683277 5.5223217,57.947037 c 0.388,-2.228064 5.9871003,-20.227097 6.7528303,-21.70786 l 0.43702,-0.845106 1.95227,0.646849 c 1.07374,0.355767 2.18691,0.850066 2.47371,1.098441 0.61592,0.533412 0.75016,8.93e-4 -2.74892,10.904602 -3.07902,9.594695 -3.85677,12.746563 -3.85677,15.629606 0,2.967012 0.40432,4.298975 1.90808,6.285786 1.34181,1.772833 1.1027,1.96454 -0.97159,0.778976 z"
     stroke="none"
     fill="#ffffff"
     id="path164" />
</svg>
