<?xml version="1.0" encoding="UTF-8" standalone="no"?>
<svg
   id="svg"
   version="1.1"
   width="400"
   height="86.28884826325412"
   viewBox="0, 0, 400,86.28884826325412"
   sodipodi:docname="UNICOM-logo.svg"
   inkscape:version="1.1.2 (0a00cf5339, 2022-02-04)"
   xmlns:inkscape="http://www.inkscape.org/namespaces/inkscape"
   xmlns:sodipodi="http://sodipodi.sourceforge.net/DTD/sodipodi-0.dtd"
   xmlns="http://www.w3.org/2000/svg"
   xmlns:svg="http://www.w3.org/2000/svg">
  <defs
     id="defs10" />
  <sodipodi:namedview
     id="namedview8"
     pagecolor="#ffffff"
     bordercolor="#666666"
     borderopacity="1.0"
     inkscape:pageshadow="2"
     inkscape:pageopacity="0.0"
     inkscape:pagecheckerboard="0"
     showgrid="false"
     inkscape:zoom="3.205"
     inkscape:cx="200"
     inkscape:cy="43.213729"
     inkscape:window-width="1896"
     inkscape:window-height="1024"
     inkscape:window-x="12"
     inkscape:window-y="44"
     inkscape:window-maximized="0"
     inkscape:current-layer="svg" />
  <g
     id="svgg">
    <path
       id="path0"
       d="M228.708 9.009 C 228.334 9.156,228.333 9.162,228.333 13.165 C 228.333 17.783,228.066 17.186,230.417 17.817 C 232.288 18.319,234.285 19.340,235.763 20.550 C 237.446 21.928,237.635 22.028,238.102 21.781 C 238.650 21.491,244.314 16.347,244.531 15.943 C 245.028 15.013,239.818 11.565,235.953 10.268 C 233.232 9.354,229.487 8.703,228.708 9.009 M290.083 8.965 C 289.487 9.085,289.463 9.256,289.471 13.175 C 289.480 17.616,289.310 17.209,291.419 17.842 C 299.568 20.289,303.963 28.345,304.280 41.417 C 304.626 55.670,299.977 65.088,291.362 67.585 C 289.400 68.154,289.555 67.784,289.462 72.128 C 289.369 76.523,289.363 76.500,290.548 76.499 C 299.166 76.486,308.395 69.250,312.228 59.500 C 318.577 43.349,314.471 22.187,303.366 13.831 C 299.645 11.030,292.612 8.454,290.083 8.965 M221.750 9.117 C 217.248 10.174,215.424 10.818,213.000 12.207 C 204.991 16.797,199.851 26.299,199.004 38.083 C 197.517 58.769,205.544 72.824,220.706 76.080 C 224.344 76.861,224.167 77.058,224.167 72.232 C 224.167 67.961,224.269 68.203,222.185 67.571 C 213.973 65.080,209.744 56.687,209.762 42.917 C 209.780 28.628,213.982 20.304,222.333 18.013 C 224.227 17.494,224.167 17.653,224.167 13.182 C 224.167 8.742,224.066 8.573,221.750 9.117 M282.333 9.169 C 282.012 9.241,281.225 9.418,280.583 9.562 C 266.577 12.701,258.730 26.357,259.816 45.701 C 260.779 62.841,267.982 73.009,281.341 76.085 C 285.257 76.987,285.328 76.918,285.328 72.250 C 285.328 68.111,285.391 68.261,283.417 67.671 C 274.329 64.952,269.715 54.913,270.509 39.583 C 271.113 27.933,275.807 19.894,283.068 18.074 C 285.335 17.506,285.170 17.853,285.279 13.417 C 285.393 8.723,285.249 8.515,282.333 9.169 M6.821 10.281 C 6.708 10.580,6.670 17.114,6.709 29.906 L 6.767 49.083 7.215 51.583 C 9.286 63.119,13.228 69.910,20.083 73.751 C 23.329 75.569,29.493 77.107,30.300 76.300 C 30.592 76.008,30.584 68.438,30.292 68.215 C 30.177 68.127,29.558 67.922,28.917 67.760 C 22.831 66.222,19.423 61.047,17.877 51.000 L 17.454 48.250 17.379 29.250 C 17.328 16.543,17.246 10.181,17.131 10.042 C 17.001 9.883,15.760 9.833,11.975 9.833 L 6.992 9.833 6.821 10.281 M47.979 10.110 C 47.788 10.340,47.758 12.487,47.799 22.902 C 47.859 38.343,47.667 46.820,47.170 50.667 C 45.904 60.472,42.557 65.770,36.479 67.589 C 34.517 68.177,34.667 67.792,34.667 72.237 C 34.667 77.092,34.561 76.988,38.554 76.073 C 49.319 73.608,55.704 65.374,57.867 51.167 C 58.292 48.375,58.568 10.916,58.169 10.170 C 57.914 9.695,48.369 9.638,47.979 10.110 M74.867 10.033 C 74.564 10.336,74.577 75.480,74.879 75.894 C 75.198 76.330,84.800 76.319,85.125 75.883 C 85.399 75.515,85.434 10.666,85.161 10.156 C 84.949 9.759,75.256 9.644,74.867 10.033 M112.200 10.033 C 112.046 10.187,112.000 15.261,112.000 31.856 C 112.000 53.863,111.987 54.333,111.367 54.333 C 110.840 54.333,110.514 53.815,105.708 45.333 C 89.528 16.786,89.879 17.388,89.599 17.668 C 89.353 17.913,89.252 35.912,89.491 36.795 C 89.583 37.137,90.514 38.917,91.559 40.750 C 92.604 42.583,94.825 46.483,96.496 49.417 C 109.357 72.003,111.261 75.296,111.746 75.804 L 112.116 76.192 117.183 76.176 C 121.715 76.162,122.272 76.131,122.458 75.882 C 122.811 75.409,122.758 10.449,122.405 10.095 C 122.063 9.753,112.538 9.696,112.200 10.033 M331.095 10.095 C 330.774 10.417,330.686 75.246,331.006 75.844 C 331.171 76.152,331.405 76.167,336.167 76.167 C 340.928 76.167,341.163 76.152,341.327 75.844 C 341.444 75.627,341.500 68.552,341.500 54.113 C 341.500 33.970,341.517 32.682,341.792 32.347 C 342.308 31.715,342.701 32.238,343.815 35.041 C 344.370 36.439,345.210 38.521,345.681 39.667 C 346.151 40.813,347.007 42.913,347.584 44.333 C 348.160 45.754,348.902 47.573,349.232 48.375 C 350.555 51.583,351.135 53.017,353.771 59.583 C 356.696 66.871,356.863 67.177,358.040 67.398 C 359.736 67.716,359.702 67.910,359.629 58.333 L 359.570 50.583 358.472 48.167 C 357.867 46.837,356.398 43.538,355.207 40.833 C 354.016 38.129,352.495 34.679,351.827 33.167 C 351.159 31.654,350.373 29.854,350.080 29.167 C 349.201 27.100,346.124 19.973,344.575 16.417 C 343.777 14.583,342.980 12.718,342.804 12.271 C 342.283 10.943,341.852 10.189,341.510 10.006 C 340.932 9.696,331.412 9.778,331.095 10.095 M381.627 10.042 C 381.478 10.156,380.910 11.300,380.364 12.583 C 379.819 13.867,379.055 15.629,378.666 16.500 C 378.278 17.371,377.755 18.571,377.503 19.167 C 377.251 19.762,376.404 21.712,375.622 23.500 C 374.840 25.287,373.563 28.212,372.785 30.000 C 372.006 31.787,370.731 34.712,369.952 36.500 C 367.884 41.239,365.764 46.108,364.690 48.583 L 363.750 50.750 363.700 58.333 C 363.642 67.073,363.630 66.932,364.454 67.276 C 365.805 67.841,366.499 67.320,367.375 65.083 C 368.421 62.415,373.498 49.773,373.834 49.000 C 374.014 48.587,374.604 47.125,375.146 45.750 C 375.687 44.375,376.784 41.637,377.583 39.667 C 378.382 37.696,379.334 35.333,379.698 34.417 C 380.494 32.415,381.010 31.771,381.457 32.219 C 381.733 32.495,381.753 33.767,381.795 54.118 C 381.827 69.717,381.891 75.786,382.025 75.947 C 382.175 76.128,383.174 76.163,387.143 76.127 L 392.074 76.083 392.282 75.667 C 392.546 75.136,392.391 10.380,392.124 10.042 C 391.887 9.741,382.016 9.741,381.627 10.042 M147.205 36.708 C 147.283 36.953,149.653 37.809,149.958 37.703 C 150.421 37.543,150.099 37.333,148.768 36.927 C 147.156 36.435,147.116 36.430,147.205 36.708 M157.667 39.997 C 157.667 40.273,158.090 40.424,166.083 42.995 C 170.117 44.293,174.445 45.687,175.702 46.094 C 178.058 46.856,178.419 46.932,178.566 46.695 C 178.656 46.549,178.060 46.331,174.250 45.112 C 170.338 43.860,167.952 43.095,163.083 41.531 C 157.250 39.656,157.667 39.774,157.667 39.997 M237.067 63.852 C 235.710 65.355,232.963 66.895,230.400 67.590 C 228.139 68.202,228.333 67.766,228.336 72.229 C 228.339 76.835,228.235 76.576,230.025 76.455 C 234.651 76.144,240.893 73.479,243.958 70.508 C 245.019 69.479,245.130 69.635,240.536 65.689 C 237.895 63.420,237.599 63.263,237.067 63.852 "
       stroke="none"
       fill="#1757be"
       fill-rule="evenodd" />
    <path
       id="path1"
       d="M146.111 37.292 C 145.984 37.544,145.151 40.075,144.261 42.917 C 143.371 45.758,142.304 49.133,141.891 50.417 C 141.477 51.700,140.848 53.650,140.493 54.750 C 139.072 59.154,138.668 61.787,138.986 64.576 C 140.628 78.998,157.314 85.203,167.892 75.324 C 170.459 72.927,171.895 70.193,173.664 64.333 C 173.955 63.371,174.296 62.283,174.422 61.917 C 174.547 61.550,175.375 58.962,176.261 56.167 C 177.147 53.371,178.088 50.411,178.353 49.590 C 179.142 47.138,179.173 47.185,176.083 46.203 C 171.183 44.646,159.848 40.992,158.932 40.675 C 157.804 40.283,157.118 40.241,156.865 40.546 C 156.676 40.773,152.318 54.171,150.645 59.667 C 148.504 66.703,149.135 71.099,152.694 73.938 C 154.889 75.690,152.644 75.575,149.333 73.766 C 143.273 70.455,142.008 64.606,145.257 54.903 C 145.776 53.353,146.785 50.209,147.499 47.917 C 148.214 45.625,149.143 42.662,149.564 41.333 C 150.643 37.930,150.684 38.060,148.288 37.264 C 146.650 36.719,146.398 36.723,146.111 37.292 "
       stroke="none"
       fill="#eb2066"
       fill-rule="evenodd" />
    <path
       id="path3"
       d="M166.637 3.750 C 160.236 4.827,155.241 9.354,152.938 16.167 C 152.420 17.699,149.496 26.981,148.659 29.750 C 148.493 30.300,148.057 31.698,147.690 32.856 C 146.539 36.486,146.456 36.203,148.896 36.981 C 151.043 37.666,151.256 37.502,151.728 34.796 C 152.238 31.875,157.753 14.688,158.757 12.894 C 161.663 7.697,169.171 5.530,174.626 8.313 C 176.328 9.181,175.962 9.526,173.304 9.558 C 170.842 9.588,169.712 10.025,167.999 11.611 C 165.559 13.870,164.852 15.383,162.169 24.083 C 161.519 26.192,160.845 28.329,160.670 28.833 C 160.495 29.337,159.933 31.063,159.421 32.667 C 158.909 34.271,158.220 36.134,157.890 36.807 C 156.587 39.461,156.583 39.456,160.833 40.817 C 162.621 41.389,165.133 42.195,166.417 42.606 C 167.700 43.018,169.762 43.679,171.000 44.075 C 172.237 44.472,174.338 45.151,175.667 45.585 C 179.010 46.678,178.993 46.679,179.447 45.333 C 179.949 43.849,183.891 31.507,185.303 27.000 C 187.540 19.857,186.082 13.067,181.301 8.362 C 177.332 4.457,172.140 2.823,166.637 3.750 "
       stroke="none"
       fill="#06bdd5"
       fill-rule="evenodd" />
    <path
       id="path4"
       d="M166.083 3.245 C 159.211 4.708,154.595 9.171,152.113 16.750 C 150.777 20.829,147.790 30.439,146.362 35.250 C 145.900 36.808,145.247 38.946,144.911 40.000 C 144.575 41.054,144.164 42.367,143.998 42.917 C 143.618 44.171,142.858 46.563,141.085 52.083 C 138.484 60.185,138.109 63.076,139.145 67.031 C 143.320 82.964,164.261 85.218,171.677 70.534 C 172.411 69.080,172.880 67.689,176.330 56.750 C 177.168 54.092,178.266 50.717,178.769 49.250 C 179.272 47.783,179.947 45.758,180.268 44.750 C 180.589 43.742,181.179 41.904,181.579 40.667 C 181.980 39.429,182.805 36.842,183.413 34.917 C 184.021 32.992,184.660 31.004,184.832 30.500 C 186.858 24.558,187.295 21.900,186.826 18.387 C 185.445 8.056,175.971 1.139,166.083 3.245 M172.218 3.677 C 182.675 5.220,188.739 16.029,185.303 27.000 C 184.355 30.024,182.634 35.433,181.669 38.417 C 181.135 40.067,180.353 42.515,179.929 43.858 C 179.308 45.829,179.078 46.353,178.733 46.579 C 178.339 46.838,178.326 46.882,178.569 47.151 C 178.934 47.554,178.905 47.874,178.353 49.590 C 178.088 50.411,177.147 53.371,176.261 56.167 C 175.375 58.962,174.547 61.550,174.422 61.917 C 174.296 62.283,173.955 63.371,173.664 64.333 C 171.895 70.193,170.459 72.927,167.892 75.324 C 157.314 85.203,140.628 78.998,138.986 64.576 C 138.668 61.787,139.072 59.154,140.493 54.750 C 140.848 53.650,141.477 51.700,141.891 50.417 C 142.304 49.133,143.371 45.758,144.261 42.917 C 146.115 36.997,146.182 36.833,146.754 36.833 C 147.178 36.833,147.327 36.452,146.985 36.241 C 146.740 36.090,146.885 35.394,147.690 32.856 C 148.057 31.698,148.493 30.300,148.659 29.750 C 151.606 20.000,153.375 14.717,154.278 12.966 C 157.737 6.258,164.828 2.587,172.218 3.677 M166.833 7.273 C 161.972 8.214,159.205 10.865,157.333 16.372 C 155.625 21.399,151.966 33.435,151.727 34.809 C 151.434 36.502,151.102 37.154,150.354 37.510 C 149.871 37.740,149.838 37.796,150.070 37.989 C 150.460 38.313,150.404 38.683,149.564 41.333 C 149.143 42.662,148.214 45.625,147.499 47.917 C 146.785 50.209,145.776 53.353,145.257 54.903 C 142.008 64.606,143.273 70.455,149.333 73.766 C 152.644 75.575,154.889 75.690,152.694 73.938 C 149.727 71.571,148.717 67.601,149.833 62.699 C 150.294 60.677,150.881 58.777,154.917 46.254 C 156.814 40.368,156.809 40.379,157.446 40.302 L 157.867 40.250 157.496 39.781 C 157.008 39.163,157.110 38.396,157.895 36.796 C 158.223 36.129,158.909 34.271,159.421 32.667 C 159.933 31.063,160.495 29.337,160.670 28.833 C 160.845 28.329,161.519 26.192,162.169 24.083 C 164.852 15.383,165.559 13.870,167.999 11.611 C 169.712 10.025,170.842 9.588,173.304 9.558 C 175.451 9.532,175.901 9.400,175.496 8.912 C 174.525 7.742,169.408 6.774,166.833 7.273 M172.017 8.101 C 173.271 8.453,173.252 8.557,171.875 8.894 C 170.236 9.294,168.870 10.025,167.621 11.169 C 165.039 13.535,164.421 14.856,161.424 24.417 C 159.716 29.868,157.944 35.274,157.724 35.708 C 157.431 36.285,157.190 36.282,155.472 35.681 C 154.708 35.413,153.765 35.111,153.377 35.008 C 152.303 34.725,152.275 34.450,153.053 31.917 C 158.527 14.100,158.933 13.041,161.152 10.816 C 162.915 9.050,164.722 8.235,167.917 7.768 C 168.803 7.639,171.006 7.818,172.017 8.101 M221.417 8.490 C 206.451 11.456,198.119 23.641,198.105 42.583 C 198.090 61.884,207.334 75.171,222.073 77.033 C 224.900 77.390,224.868 77.448,224.800 72.032 C 224.741 67.312,224.818 67.506,222.817 67.006 C 215.001 65.053,210.337 56.156,210.334 43.197 C 210.331 29.386,215.150 19.983,222.956 18.569 C 224.805 18.234,224.862 18.058,224.800 12.951 C 224.737 7.787,224.767 7.826,221.417 8.490 M228.051 8.569 L 227.583 8.971 227.533 12.930 C 227.468 18.021,227.446 17.961,229.504 18.334 C 231.839 18.756,234.007 19.870,236.136 21.742 C 237.791 23.197,237.664 23.246,241.713 19.598 C 243.587 17.911,245.168 16.405,245.226 16.251 C 246.096 13.986,237.799 9.340,231.239 8.419 C 228.858 8.085,228.600 8.097,228.051 8.569 M282.586 8.438 C 269.932 10.409,260.802 21.010,259.353 35.417 C 258.897 39.948,258.779 42.784,258.975 44.519 C 259.082 45.471,259.243 47.337,259.333 48.667 C 260.338 63.523,269.293 74.761,281.854 76.929 C 284.212 77.336,285.071 77.315,285.578 76.838 L 286.000 76.442 286.000 72.377 C 286.000 67.471,285.974 67.404,284.000 67.085 C 277.482 66.033,272.398 58.369,271.411 48.108 C 269.880 32.199,274.604 20.846,283.667 18.652 C 284.763 18.387,285.187 18.199,285.542 17.819 L 286.000 17.328 286.000 13.261 C 286.000 7.756,286.096 7.891,282.586 8.438 M289.394 8.351 C 288.741 8.686,288.667 9.176,288.667 13.167 C 288.667 18.014,288.642 17.956,290.856 18.421 C 298.040 19.933,302.553 27.320,303.445 39.027 C 304.584 53.972,299.440 65.287,290.727 67.001 C 290.169 67.111,289.496 67.374,289.231 67.584 L 288.750 67.968 288.700 72.155 L 288.650 76.343 289.166 76.859 C 289.735 77.427,289.547 77.419,292.417 77.003 C 306.538 74.956,315.833 61.483,315.833 43.062 C 315.833 25.800,308.735 13.503,296.417 9.427 C 293.664 8.517,290.129 7.975,289.394 8.351 M232.890 9.441 C 237.347 10.440,241.119 12.292,243.890 14.839 C 244.950 15.815,245.047 15.656,241.411 18.935 C 237.449 22.509,237.973 22.359,235.763 20.550 C 234.285 19.340,232.288 18.319,230.417 17.817 C 228.066 17.186,228.333 17.783,228.333 13.165 C 228.333 8.226,228.148 8.377,232.890 9.441 M293.750 9.443 C 306.534 12.301,314.085 23.196,315.016 40.124 C 315.875 55.759,310.150 68.555,299.955 73.785 C 296.198 75.712,290.010 77.151,289.530 76.208 C 289.295 75.747,289.499 68.375,289.752 68.165 C 289.867 68.069,290.592 67.808,291.362 67.585 C 299.977 65.088,304.626 55.670,304.280 41.417 C 303.963 28.345,299.568 20.289,291.419 17.842 C 290.520 17.573,289.716 17.283,289.632 17.199 C 289.437 17.004,289.413 9.351,289.606 9.168 C 290.008 8.789,291.166 8.866,293.750 9.443 M223.967 9.200 C 224.110 9.344,224.167 10.463,224.167 13.182 C 224.167 17.653,224.227 17.494,222.333 18.013 C 213.982 20.304,209.780 28.628,209.762 42.917 C 209.744 56.687,213.973 65.080,222.185 67.571 C 224.269 68.203,224.167 67.961,224.167 72.232 C 224.167 77.058,224.344 76.861,220.706 76.080 C 205.544 72.824,197.517 58.769,199.004 38.083 C 199.851 26.299,204.991 16.797,213.000 12.207 C 215.424 10.818,217.248 10.174,221.750 9.117 C 222.433 8.957,223.773 9.007,223.967 9.200 M285.186 9.458 C 285.375 9.945,285.287 16.679,285.085 17.193 C 284.959 17.513,284.487 17.719,283.068 18.074 C 275.807 19.894,271.113 27.933,270.509 39.583 C 269.715 54.913,274.329 64.952,283.417 67.671 C 285.391 68.261,285.328 68.111,285.328 72.250 C 285.328 76.918,285.257 76.987,281.341 76.085 C 267.982 73.009,260.779 62.841,259.816 45.701 C 258.730 26.357,266.577 12.701,280.583 9.562 C 281.225 9.418,282.012 9.241,282.333 9.169 C 283.790 8.842,284.994 8.964,285.186 9.458 M6.409 9.576 L 6.000 9.985 6.002 28.617 C 6.003 44.074,6.046 47.633,6.254 49.500 C 8.030 65.466,15.729 75.309,27.815 77.067 C 31.213 77.562,31.167 77.628,31.167 72.248 L 31.167 68.141 30.708 67.688 C 30.370 67.353,29.951 67.180,29.112 67.027 C 23.235 65.958,19.456 59.631,18.386 49.069 C 18.162 46.853,18.107 43.413,18.055 28.174 L 17.993 9.931 17.634 9.549 L 17.275 9.167 12.047 9.167 L 6.818 9.167 6.409 9.576 M47.630 9.344 C 47.000 9.711,46.971 10.457,47.088 23.397 C 47.282 44.893,46.869 51.562,44.983 57.357 C 43.220 62.773,40.102 66.124,36.029 66.982 C 33.968 67.416,34.012 67.301,34.005 72.255 C 33.998 77.647,33.931 77.542,37.083 77.061 C 48.389 75.337,55.607 67.189,58.249 53.167 C 58.935 49.523,59.023 46.386,58.968 27.444 L 58.917 9.804 58.523 9.485 C 58.074 9.121,48.231 8.994,47.630 9.344 M74.384 9.569 L 73.917 9.971 73.874 42.738 C 73.826 78.904,73.757 76.503,74.862 76.786 C 76.199 77.129,85.173 76.901,85.559 76.515 L 85.917 76.157 85.960 43.072 L 86.002 9.987 85.592 9.577 L 85.182 9.167 80.017 9.167 L 74.852 9.167 74.384 9.569 M111.718 9.569 L 111.250 9.971 111.206 31.187 C 111.182 42.856,111.102 52.465,111.027 52.539 C 110.789 52.777,110.434 52.207,106.585 45.417 C 104.507 41.750,102.221 37.737,101.506 36.500 C 100.790 35.262,98.950 32.037,97.417 29.333 C 89.423 15.236,89.824 15.886,89.261 16.102 C 88.706 16.315,88.667 17.022,88.667 26.734 C 88.667 38.272,88.331 36.556,91.747 42.500 C 93.196 45.021,96.533 50.871,99.163 55.500 C 111.409 77.052,111.105 76.551,112.071 76.799 C 113.395 77.139,122.504 76.904,122.887 76.520 L 123.250 76.157 123.250 42.981 L 123.250 9.804 122.857 9.485 C 122.488 9.187,122.136 9.167,117.324 9.167 L 112.185 9.167 111.718 9.569 M330.643 9.485 L 330.250 9.804 330.250 42.981 L 330.250 76.157 330.602 76.509 C 330.983 76.890,339.980 77.122,341.305 76.785 C 342.388 76.509,342.333 77.656,342.333 55.099 C 342.333 42.295,342.393 34.650,342.493 34.588 C 342.754 34.426,343.073 35.072,344.591 38.833 C 346.155 42.708,347.131 45.108,348.047 47.333 C 349.610 51.127,350.408 53.095,352.938 59.404 C 356.010 67.062,356.185 67.427,356.997 67.858 C 357.865 68.319,359.190 68.274,359.782 67.764 L 360.250 67.362 360.250 58.889 L 360.250 50.417 358.688 46.917 C 356.214 41.374,353.432 35.085,352.532 33.000 C 352.077 31.946,351.051 29.583,350.252 27.750 C 349.453 25.917,348.140 22.879,347.334 21.000 C 342.706 10.215,342.522 9.818,341.966 9.428 C 341.340 8.989,331.193 9.041,330.643 9.485 M381.367 9.341 C 380.910 9.525,381.042 9.241,375.968 20.917 C 373.134 27.437,371.199 31.877,368.670 37.667 C 367.137 41.174,364.863 46.407,364.034 48.333 C 363.007 50.719,363.009 50.703,363.004 59.000 C 363.000 67.308,363.017 67.463,364.000 67.954 C 364.941 68.424,366.663 68.077,367.135 67.323 C 367.404 66.892,367.524 66.596,373.247 52.333 C 379.439 36.900,380.132 35.208,380.463 34.703 L 380.741 34.278 380.854 34.680 C 380.916 34.902,380.974 44.285,380.983 55.532 L 381.000 75.981 381.384 76.428 L 381.768 76.874 386.928 76.881 C 392.620 76.887,392.715 76.872,392.986 75.891 C 393.335 74.626,392.997 9.830,392.639 9.473 C 392.298 9.131,382.184 9.014,381.367 9.341 M17.131 10.042 C 17.246 10.181,17.328 16.543,17.379 29.250 L 17.454 48.250 17.877 51.000 C 19.423 61.047,22.831 66.222,28.917 67.760 C 29.558 67.922,30.177 68.127,30.292 68.215 C 30.584 68.438,30.592 76.008,30.300 76.300 C 29.493 77.107,23.329 75.569,20.083 73.751 C 13.228 69.910,9.286 63.119,7.215 51.583 L 6.767 49.083 6.709 29.906 C 6.670 17.114,6.708 10.580,6.821 10.281 L 6.992 9.833 11.975 9.833 C 15.760 9.833,17.001 9.883,17.131 10.042 M58.169 10.170 C 58.568 10.916,58.292 48.375,57.867 51.167 C 55.704 65.374,49.319 73.608,38.554 76.073 C 34.561 76.988,34.667 77.092,34.667 72.237 C 34.667 67.792,34.517 68.177,36.479 67.589 C 42.557 65.770,45.904 60.472,47.170 50.667 C 47.667 46.820,47.859 38.343,47.799 22.902 C 47.758 12.487,47.788 10.340,47.979 10.110 C 48.369 9.638,57.914 9.695,58.169 10.170 M85.161 10.156 C 85.434 10.666,85.399 75.515,85.125 75.883 C 84.800 76.319,75.198 76.330,74.879 75.894 C 74.577 75.480,74.564 10.336,74.867 10.033 C 75.256 9.644,84.949 9.759,85.161 10.156 M122.405 10.095 C 122.758 10.449,122.811 75.409,122.458 75.882 C 122.272 76.131,121.715 76.162,117.183 76.176 L 112.116 76.192 111.746 75.804 C 111.261 75.296,109.357 72.003,96.496 49.417 C 94.825 46.483,92.604 42.583,91.559 40.750 C 90.514 38.917,89.583 37.137,89.491 36.795 C 89.252 35.912,89.353 17.913,89.599 17.668 C 89.879 17.388,89.528 16.786,105.708 45.333 C 110.514 53.815,110.840 54.333,111.367 54.333 C 111.987 54.333,112.000 53.863,112.000 31.856 C 112.000 15.261,112.046 10.187,112.200 10.033 C 112.538 9.696,122.063 9.753,122.405 10.095 M341.510 10.006 C 341.852 10.189,342.283 10.943,342.804 12.271 C 342.980 12.718,343.777 14.583,344.575 16.417 C 346.124 19.973,349.201 27.100,350.080 29.167 C 350.373 29.854,351.159 31.654,351.827 33.167 C 352.495 34.679,354.016 38.129,355.207 40.833 C 356.398 43.538,357.867 46.837,358.472 48.167 L 359.570 50.583 359.629 58.333 C 359.702 67.910,359.736 67.716,358.040 67.398 C 356.863 67.177,356.696 66.871,353.771 59.583 C 351.135 53.017,350.555 51.583,349.232 48.375 C 348.902 47.573,348.160 45.754,347.584 44.333 C 347.007 42.913,346.151 40.813,345.681 39.667 C 345.210 38.521,344.370 36.439,343.815 35.041 C 342.701 32.238,342.308 31.715,341.792 32.347 C 341.517 32.682,341.500 33.970,341.500 54.113 C 341.500 68.552,341.444 75.627,341.327 75.844 C 341.163 76.152,340.928 76.167,336.167 76.167 C 331.405 76.167,331.171 76.152,331.006 75.844 C 330.686 75.246,330.774 10.417,331.095 10.095 C 331.412 9.778,340.932 9.696,341.510 10.006 M392.124 10.042 C 392.391 10.380,392.546 75.136,392.282 75.667 L 392.074 76.083 387.143 76.127 C 383.174 76.163,382.175 76.128,382.025 75.947 C 381.891 75.786,381.827 69.717,381.795 54.118 C 381.753 33.767,381.733 32.495,381.457 32.219 C 381.010 31.771,380.494 32.415,379.698 34.417 C 379.334 35.333,378.382 37.696,377.583 39.667 C 376.784 41.637,375.687 44.375,375.146 45.750 C 374.604 47.125,374.014 48.587,373.834 49.000 C 373.498 49.773,368.421 62.415,367.375 65.083 C 366.499 67.320,365.805 67.841,364.454 67.276 C 363.630 66.932,363.642 67.073,363.700 58.333 L 363.750 50.750 364.690 48.583 C 365.764 46.108,367.884 41.239,369.952 36.500 C 370.731 34.712,372.006 31.787,372.785 30.000 C 373.563 28.212,374.840 25.287,375.622 23.500 C 376.404 21.712,377.251 19.762,377.503 19.167 C 377.755 18.571,378.278 17.371,378.666 16.500 C 379.055 15.629,379.819 13.867,380.364 12.583 C 380.910 11.300,381.478 10.156,381.627 10.042 C 382.016 9.741,391.887 9.741,392.124 10.042 M153.795 38.934 C 156.779 39.935,156.737 39.842,155.682 43.082 C 155.323 44.183,154.380 47.108,153.586 49.583 C 152.792 52.058,151.843 55.012,151.476 56.148 C 148.269 66.078,148.355 69.833,151.874 73.602 L 152.917 74.720 152.167 74.620 C 149.932 74.325,146.241 71.541,145.046 69.249 C 143.180 65.671,143.241 61.845,145.264 55.714 C 145.772 54.175,146.749 51.117,147.436 48.917 C 150.658 38.603,150.821 38.167,151.458 38.167 C 151.485 38.167,152.537 38.512,153.795 38.934 M236.155 63.726 C 234.173 65.487,231.933 66.632,229.720 67.017 C 228.934 67.154,228.479 67.339,228.104 67.674 L 227.583 68.139 227.583 72.306 L 227.583 76.473 227.987 76.903 C 228.476 77.424,228.770 77.433,231.333 77.013 C 236.194 76.216,240.208 74.488,243.616 71.726 C 246.225 69.612,246.279 69.754,241.193 65.329 C 237.551 62.162,237.821 62.247,236.155 63.726 M240.536 65.689 C 245.130 69.635,245.019 69.479,243.958 70.508 C 240.893 73.479,234.651 76.144,230.025 76.455 C 228.235 76.576,228.339 76.835,228.336 72.229 C 228.333 67.766,228.139 68.202,230.400 67.590 C 232.963 66.895,235.710 65.355,237.067 63.852 C 237.599 63.263,237.895 63.420,240.536 65.689 "
       stroke="none"
       fill="#98bae4"
       fill-rule="evenodd" />
  </g>
  <path
     d="m 154.85811,35.311052 c -1.06049,-0.372717 -2.02121,-0.772554 -2.13494,-0.888528 -0.23424,-0.238868 3.70909,-13.223707 5.38071,-17.717913 1.32866,-3.572156 2.11635,-4.868478 3.87068,-6.370119 2.22793,-1.9070274 7.00548,-2.9177086 9.93381,-2.1014765 0.6761,0.1884552 0.53086,0.301515 -1.19643,0.9313154 -1.47616,0.5382351 -2.41217,1.1630481 -3.75704,2.5079191 -2.16337,2.163368 -2.86136,3.795128 -6.4183,15.004817 -2.40198,7.569813 -3.08653,9.383206 -3.52433,9.336013 -0.1243,-0.0134 -1.09367,-0.329311 -2.15416,-0.702028 z"
     stroke="none"
     fill="#ffffff"
     id="path86" />
  <path
     d="m 150.07846,73.605232 c -4.99216,-2.853282 -6.94555,-7.055054 -5.94663,-12.791294 0.388,-2.228064 5.9871,-20.227097 6.75283,-21.70786 l 0.43702,-0.845106 1.95227,0.646849 c 1.07374,0.355767 2.18691,0.850066 2.47371,1.098441 0.61592,0.533412 0.75016,8.93e-4 -2.74892,10.904602 -3.07902,9.594695 -3.85677,12.746563 -3.85677,15.629606 0,2.967012 0.40432,4.298975 1.90808,6.285786 1.34181,1.772833 1.1027,1.96454 -0.97159,0.778976 z"
     stroke="none"
     fill="#ffffff"
     id="path164" />
</svg>
